<svg width="1280" height="720" viewBox="0 0 1280 720" fill="none" xmlns="http://www.w3.org/2000/svg">
<rect width="1280" height="720" fill="black"/>
<rect x="820.5" y="256.5" width="20" height="175" stroke="white" stroke-width="7"/>
<path d="M288.14 169.5L289.046 170.137L406.577 252.741L524.109 170.137L525.015 169.5H577.654V433.5H513.302V251.453L438.933 301.389V433.5H374.58V301.393L299.853 251.438V433.5H235.5V169.5H288.14ZM747.037 255.047L748.066 256.098L761.781 270.1V255.047H787.421V433.141H761.781V421.915L747.312 432.797L746.377 433.5H646.797L645.822 432.686L611.41 403.931L610.154 402.881V284.92L611.444 283.87L645.855 255.833L646.821 255.047H747.037ZM636.511 297.202V390.964L656.13 407.09H738.995L761.781 389.463V307L737.579 280.737H656.151L636.511 297.202ZM1041.5 433.5H1015.14V298.025L992.373 280.737H923.04L900.27 298.025V433.141H873.912V255.047H900.27V267.563L915.41 255.784L916.358 255.047H1001.14L1002.06 255.718L1040.06 283.395L1041.5 284.443V433.5Z" stroke="white" stroke-width="7"/>
<path d="M655.499 168.411V173.96H634.47V233.589H628.029V173.96H607V168.411H655.499Z" fill="white"/>
<path d="M679.924 233.589V168.411H717.814V173.96H686.365V196.627H714.404V202.082H686.365V228.04H720.277V233.589H679.924Z" fill="white"/>
<path d="M772.383 235C768.152 235 764.205 234.248 760.543 232.743C756.943 231.238 753.786 229.043 751.07 226.159C748.418 223.275 746.303 219.732 744.724 215.531C743.208 211.267 742.45 206.408 742.45 200.953C742.45 195.498 743.271 190.67 744.913 186.469C746.618 182.205 748.86 178.631 751.639 175.747C754.417 172.863 757.638 170.699 761.301 169.257C764.963 167.752 768.784 167 772.762 167C775.225 167 777.467 167.157 779.488 167.47C781.509 167.784 783.277 168.191 784.792 168.693C786.308 169.132 787.602 169.602 788.676 170.104C789.75 170.543 790.571 170.95 791.139 171.326L789.055 176.876C787.476 175.935 785.455 175.026 782.993 174.148C780.593 173.207 777.593 172.737 773.994 172.737C769.889 172.737 766.289 173.427 763.195 174.806C760.164 176.186 757.606 178.13 755.522 180.638C753.438 183.146 751.86 186.124 750.786 189.573C749.776 193.021 749.271 196.846 749.271 201.047C749.271 205.373 749.776 209.292 750.786 212.804C751.86 216.252 753.407 219.199 755.428 221.645C757.448 224.09 759.911 225.971 762.816 227.288C765.784 228.604 769.163 229.263 772.952 229.263C777.12 229.263 780.593 228.887 783.371 228.134C786.213 227.319 788.36 226.504 789.813 225.689L791.612 231.144C791.17 231.457 790.413 231.834 789.339 232.272C788.266 232.649 786.908 233.056 785.266 233.495C783.624 233.934 781.73 234.279 779.582 234.53C777.435 234.843 775.036 235 772.383 235Z" fill="white"/>
<path d="M861.744 233.589C860.544 231.395 858.997 228.824 857.103 225.877C855.271 222.93 853.251 219.795 851.04 216.472C848.83 213.086 846.494 209.637 844.031 206.126C841.568 202.552 839.105 199.103 836.642 195.78C834.243 192.394 831.874 189.228 829.538 186.281C827.264 183.334 825.212 180.794 823.381 178.663V233.589H817.034V168.411H822.149C825.37 171.985 828.812 176.123 832.474 180.826C836.2 185.466 839.831 190.231 843.368 195.122C846.904 199.95 850.188 204.684 853.219 209.324C856.313 213.964 858.839 218.008 860.797 221.456V168.411H867.144V233.589H861.744Z" fill="white"/>
<path d="M898.401 168.411H904.843V233.589H898.401V168.411Z" fill="white"/>
<path d="M963.387 235C959.156 235 955.209 234.248 951.546 232.743C947.947 231.238 944.789 229.043 942.074 226.159C939.421 223.275 937.306 219.732 935.727 215.531C934.212 211.267 933.454 206.408 933.454 200.953C933.454 195.498 934.275 190.67 935.917 186.469C937.622 182.205 939.864 178.631 942.642 175.747C945.421 172.863 948.641 170.699 952.304 169.257C955.967 167.752 959.787 167 963.766 167C966.229 167 968.47 167.157 970.491 167.47C972.512 167.784 974.28 168.191 975.796 168.693C977.311 169.132 978.606 169.602 979.679 170.104C980.753 170.543 981.574 170.95 982.142 171.326L980.058 176.876C978.48 175.935 976.459 175.026 973.996 174.148C971.596 173.207 968.597 172.737 964.997 172.737C960.892 172.737 957.293 173.427 954.199 174.806C951.167 176.186 948.61 178.13 946.526 180.638C944.442 183.146 942.863 186.124 941.79 189.573C940.779 193.021 940.274 196.846 940.274 201.047C940.274 205.373 940.779 209.292 941.79 212.804C942.863 216.252 944.41 219.199 946.431 221.645C948.452 224.09 950.915 225.971 953.82 227.288C956.788 228.604 960.166 229.263 963.955 229.263C968.123 229.263 971.596 228.887 974.375 228.134C977.217 227.319 979.364 226.504 980.816 225.689L982.616 231.144C982.174 231.457 981.416 231.834 980.343 232.272C979.269 232.649 977.911 233.056 976.269 233.495C974.627 233.934 972.733 234.279 970.586 234.53C968.439 234.843 966.039 235 963.387 235Z" fill="white"/>
<path d="M1023.08 229.451C1028.19 229.451 1032.17 228.542 1035.01 226.723C1037.85 224.842 1039.27 221.833 1039.27 217.694C1039.27 215.312 1038.8 213.337 1037.85 211.769C1036.97 210.139 1035.77 208.791 1034.25 207.725C1032.74 206.596 1031 205.656 1029.04 204.903C1027.09 204.088 1025.03 203.242 1022.89 202.364C1020.17 201.298 1017.74 200.201 1015.59 199.072C1013.45 197.943 1011.61 196.689 1010.1 195.31C1008.58 193.868 1007.42 192.237 1006.59 190.419C1005.84 188.601 1005.46 186.469 1005.46 184.024C1005.46 178.443 1007.32 174.211 1011.05 171.326C1014.77 168.442 1019.95 167 1026.58 167C1028.35 167 1030.09 167.125 1031.79 167.376C1033.5 167.627 1035.08 167.972 1036.53 168.411C1038.04 168.787 1039.4 169.226 1040.6 169.728C1041.86 170.229 1042.91 170.762 1043.73 171.326L1041.45 176.687C1039.62 175.433 1037.38 174.43 1034.73 173.678C1032.14 172.925 1029.33 172.549 1026.3 172.549C1024.21 172.549 1022.29 172.769 1020.52 173.207C1018.81 173.584 1017.33 174.242 1016.07 175.183C1014.8 176.06 1013.79 177.189 1013.04 178.568C1012.34 179.948 1011.99 181.609 1011.99 183.553C1011.99 185.56 1012.37 187.253 1013.13 188.632C1013.89 190.012 1014.93 191.203 1016.26 192.206C1017.65 193.209 1019.26 194.118 1021.09 194.934C1022.92 195.749 1024.91 196.595 1027.06 197.473C1029.64 198.539 1032.08 199.605 1034.35 200.671C1036.69 201.737 1038.71 202.991 1040.41 204.433C1042.12 205.875 1043.47 207.631 1044.48 209.7C1045.49 211.769 1046 214.308 1046 217.318C1046 223.212 1043.92 227.633 1039.75 230.58C1035.64 233.527 1030.05 235 1022.98 235C1020.46 235 1018.15 234.843 1016.07 234.53C1013.98 234.216 1012.12 233.84 1010.48 233.401C1008.84 232.899 1007.45 232.398 1006.31 231.896C1005.17 231.395 1004.29 230.956 1003.66 230.58L1005.74 225.03C1006.37 225.407 1007.23 225.846 1008.3 226.347C1009.37 226.849 1010.64 227.35 1012.09 227.852C1013.54 228.291 1015.18 228.667 1017.01 228.981C1018.85 229.294 1020.87 229.451 1023.08 229.451Z" fill="white"/>
<path d="M267.442 396.26L234 421.105V409.638L267.442 385.43L301.472 410.275V421.105L267.442 396.26Z" fill="white"/>
<path d="M267.442 375.39L234 398.615V387.896L267.442 365.266L301.472 388.491V398.615L267.442 375.39Z" fill="white"/>
<path d="M267.442 352.595L234 376.9V365.682L267.442 342L301.472 366.305V376.9L267.442 352.595Z" fill="white"/>
<path d="M267.442 331.115L234 355.96V344.493L267.442 320.285L301.472 345.13V355.96L267.442 331.115Z" fill="white"/>
<path d="M267.442 310.176L234 335.021V323.554L267.442 299.346L301.472 324.191V335.021L267.442 310.176Z" fill="white"/>
<path d="M267.442 288.765L234 312.53V301.562L267.442 278.406L301.472 302.171V312.53L267.442 288.765Z" fill="white"/>
<path d="M267.442 268.061L234 292.366V281.149L267.442 257.467L301.472 281.772V292.366L267.442 268.061Z" fill="white"/>
<path d="M508.375 538L496.219 492.188H502.438L509.406 522.219C510.156 525.365 510.802 528.49 511.344 531.594C512.51 526.698 513.198 523.875 513.406 523.125L522.125 492.188H529.438L536 515.375C537.646 521.125 538.833 526.531 539.562 531.594C540.146 528.698 540.906 525.375 541.844 521.625L549.031 492.188H555.125L542.562 538H536.719L527.062 503.094C526.25 500.177 525.771 498.385 525.625 497.719C525.146 499.823 524.698 501.615 524.281 503.094L514.562 538H508.375ZM560.938 538V492.188H594.062V497.594H567V511.625H592.344V517H567V532.594H595.125V538H560.938ZM603.25 538V492.188H620.438C623.938 492.188 626.74 492.656 628.844 493.594C630.969 494.51 632.625 495.938 633.812 497.875C635.021 499.792 635.625 501.802 635.625 503.906C635.625 505.865 635.094 507.708 634.031 509.438C632.969 511.167 631.365 512.562 629.219 513.625C631.99 514.438 634.115 515.823 635.594 517.781C637.094 519.74 637.844 522.052 637.844 524.719C637.844 526.865 637.385 528.865 636.469 530.719C635.573 532.552 634.458 533.969 633.125 534.969C631.792 535.969 630.115 536.729 628.094 537.25C626.094 537.75 623.635 538 620.719 538H603.25ZM609.312 511.438H619.219C621.906 511.438 623.833 511.26 625 510.906C626.542 510.448 627.698 509.688 628.469 508.625C629.26 507.562 629.656 506.229 629.656 504.625C629.656 503.104 629.292 501.771 628.562 500.625C627.833 499.458 626.792 498.667 625.438 498.25C624.083 497.812 621.76 497.594 618.469 497.594H609.312V511.438ZM609.312 532.594H620.719C622.677 532.594 624.052 532.521 624.844 532.375C626.24 532.125 627.406 531.708 628.344 531.125C629.281 530.542 630.052 529.698 630.656 528.594C631.26 527.469 631.562 526.177 631.562 524.719C631.562 523.01 631.125 521.531 630.25 520.281C629.375 519.01 628.156 518.125 626.594 517.625C625.052 517.104 622.823 516.844 619.906 516.844H609.312V532.594ZM655.406 538L673 492.188H679.531L698.281 538H691.375L686.031 524.125H666.875L661.844 538H655.406ZM668.625 519.188H684.156L679.375 506.5C677.917 502.646 676.833 499.479 676.125 497C675.542 499.938 674.719 502.854 673.656 505.75L668.625 519.188ZM703.125 538V492.188H720.406C723.448 492.188 725.771 492.333 727.375 492.625C729.625 493 731.51 493.719 733.031 494.781C734.552 495.823 735.771 497.292 736.688 499.188C737.625 501.083 738.094 503.167 738.094 505.438C738.094 509.333 736.854 512.635 734.375 515.344C731.896 518.031 727.417 519.375 720.938 519.375H709.188V538H703.125ZM709.188 513.969H721.031C724.948 513.969 727.729 513.24 729.375 511.781C731.021 510.323 731.844 508.271 731.844 505.625C731.844 503.708 731.354 502.073 730.375 500.719C729.417 499.344 728.146 498.438 726.562 498C725.542 497.729 723.656 497.594 720.906 497.594H709.188V513.969ZM745.812 538V492.188H763.094C766.135 492.188 768.458 492.333 770.062 492.625C772.312 493 774.198 493.719 775.719 494.781C777.24 495.823 778.458 497.292 779.375 499.188C780.312 501.083 780.781 503.167 780.781 505.438C780.781 509.333 779.542 512.635 777.062 515.344C774.583 518.031 770.104 519.375 763.625 519.375H751.875V538H745.812ZM751.875 513.969H763.719C767.635 513.969 770.417 513.24 772.062 511.781C773.708 510.323 774.531 508.271 774.531 505.625C774.531 503.708 774.042 502.073 773.062 500.719C772.104 499.344 770.833 498.438 769.25 498C768.229 497.729 766.344 497.594 763.594 497.594H751.875V513.969Z" fill="white"/>
</svg>
