<svg width="390" height="844" viewBox="0 0 390 844" fill="none" xmlns="http://www.w3.org/2000/svg">
<g clip-path="url(#clip0_2222_41)">
<path d="M390 0H0V844H390V0Z" fill="black"/>
<path d="M124.449 251.5L125.098 251.959L196.331 302.309L267.565 251.959L268.213 251.5H300.708V413.634H260.841V302.658L216.373 332.686V413.634H176.506V332.688L131.821 302.646V413.634H91.9534V251.5H124.449Z" stroke="white" stroke-width="5"/>
<path d="M111.541 390.747L91 405.953V398.935L111.541 384.119L132.442 399.325V405.953L111.541 390.747Z" fill="white"/>
<path d="M111.541 377.974L91 392.188V385.628L111.541 371.778L132.442 385.992V392.188L111.541 377.974Z" fill="white"/>
<path d="M111.541 364.023L91 378.898V372.032L111.541 357.539L132.442 372.414V378.898L111.541 364.023Z" fill="white"/>
<path d="M111.541 350.877L91 366.082V359.064L111.541 344.249L132.442 359.454V366.082L111.541 350.877Z" fill="white"/>
<path d="M111.541 338.061L91 353.267V346.249L111.541 331.433L132.442 346.639V353.267L111.541 338.061Z" fill="white"/>
<path d="M111.541 324.957L91 339.502V332.789L111.541 318.618L132.442 333.162V339.502L111.541 324.957Z" fill="white"/>
<path d="M111.541 312.286L91 327.161V320.296L111.541 305.802L132.442 320.677V327.161L111.541 312.286Z" fill="white"/>
<path d="M149.926 513L145.747 497.252H147.885L150.28 507.575C150.538 508.657 150.76 509.731 150.946 510.798C151.347 509.115 151.584 508.145 151.655 507.887L154.652 497.252H157.166L159.422 505.223C159.988 507.199 160.396 509.058 160.646 510.798C160.847 509.802 161.108 508.66 161.431 507.371L163.901 497.252H165.996L161.678 513H159.669L156.35 501.001C156.07 499.998 155.906 499.382 155.855 499.153C155.691 499.877 155.537 500.493 155.394 501.001L152.053 513H149.926ZM167.994 513V497.252H179.381V499.11H170.078V503.934H178.79V505.781H170.078V511.142H179.746V513H167.994ZM182.539 513V497.252H188.447C189.65 497.252 190.614 497.413 191.337 497.735C192.067 498.05 192.637 498.541 193.045 499.207C193.46 499.866 193.668 500.557 193.668 501.28C193.668 501.953 193.485 502.587 193.12 503.182C192.755 503.776 192.203 504.256 191.466 504.621C192.418 504.9 193.149 505.377 193.657 506.05C194.173 506.723 194.431 507.518 194.431 508.435C194.431 509.172 194.273 509.86 193.958 510.497C193.65 511.127 193.267 511.614 192.809 511.958C192.35 512.302 191.774 512.563 191.079 512.742C190.392 512.914 189.547 513 188.544 513H182.539ZM184.623 503.869H188.028C188.952 503.869 189.615 503.808 190.016 503.687C190.546 503.529 190.943 503.268 191.208 502.902C191.48 502.537 191.616 502.079 191.616 501.527C191.616 501.005 191.491 500.546 191.24 500.152C190.99 499.751 190.632 499.479 190.166 499.336C189.701 499.186 188.902 499.11 187.771 499.11H184.623V503.869ZM184.623 511.142H188.544C189.217 511.142 189.69 511.117 189.962 511.066C190.442 510.98 190.843 510.837 191.165 510.637C191.487 510.436 191.752 510.146 191.96 509.767C192.168 509.38 192.271 508.936 192.271 508.435C192.271 507.847 192.121 507.339 191.82 506.909C191.52 506.472 191.101 506.168 190.563 505.996C190.034 505.817 189.267 505.728 188.265 505.728H184.623V511.142ZM200.468 513L206.516 497.252H208.761L215.206 513H212.832L210.995 508.23H204.41L202.681 513H200.468ZM205.012 506.533H210.351L208.707 502.172C208.206 500.847 207.833 499.758 207.59 498.906C207.389 499.916 207.106 500.919 206.741 501.914L205.012 506.533ZM216.871 513V497.252H222.812C223.857 497.252 224.656 497.302 225.207 497.402C225.98 497.531 226.629 497.778 227.151 498.144C227.674 498.502 228.093 499.007 228.408 499.658C228.73 500.31 228.892 501.026 228.892 501.807C228.892 503.146 228.465 504.281 227.613 505.212C226.761 506.136 225.221 506.598 222.994 506.598H218.955V513H216.871ZM218.955 504.739H223.026C224.373 504.739 225.329 504.489 225.895 503.987C226.46 503.486 226.743 502.781 226.743 501.871C226.743 501.212 226.575 500.65 226.238 500.185C225.909 499.712 225.472 499.4 224.928 499.25C224.577 499.157 223.929 499.11 222.983 499.11H218.955V504.739ZM231.545 513V497.252H237.485C238.531 497.252 239.329 497.302 239.881 497.402C240.654 497.531 241.302 497.778 241.825 498.144C242.348 498.502 242.767 499.007 243.082 499.658C243.404 500.31 243.565 501.026 243.565 501.807C243.565 503.146 243.139 504.281 242.287 505.212C241.435 506.136 239.895 506.598 237.668 506.598H233.629V513H231.545ZM233.629 504.739H237.7C239.047 504.739 240.003 504.489 240.568 503.987C241.134 503.486 241.417 502.781 241.417 501.871C241.417 501.212 241.249 500.65 240.912 500.185C240.583 499.712 240.146 499.4 239.602 499.25C239.251 499.157 238.603 499.11 237.657 499.11H233.629V504.739Z" fill="white"/>
<path d="M60.8271 484V457.515H68.8306L73.6362 475.581L78.3877 457.515H86.4092V484H81.4409V463.151L76.1836 484H71.0347L65.7954 463.151V484H60.8271ZM117.454 484H111.637L109.325 477.984H98.7377L96.5517 484H90.8788L101.195 457.515H106.85L117.454 484ZM107.608 473.521L103.959 463.693L100.382 473.521H107.608ZM121.996 484V457.515H127.344V484H121.996ZM134.361 484V457.515H139.564L150.404 475.202V457.515H155.372V484H150.007L139.329 466.729V484H134.361ZM168.857 484V461.995H160.998V457.515H182.046V461.995H174.205V484H168.857ZM187.364 484V457.515H207.002V461.995H192.712V467.867H206.009V472.329H192.712V479.538H207.508V484H187.364ZM230.839 474.262L236.024 475.906C235.229 478.797 233.905 480.947 232.05 482.356C230.207 483.753 227.864 484.452 225.022 484.452C221.505 484.452 218.614 483.253 216.35 480.856C214.086 478.448 212.954 475.16 212.954 470.992C212.954 466.584 214.092 463.163 216.368 460.73C218.644 458.285 221.637 457.063 225.347 457.063C228.587 457.063 231.219 458.021 233.242 459.936C234.447 461.068 235.35 462.694 235.952 464.813L230.659 466.078C230.345 464.705 229.689 463.621 228.689 462.826C227.702 462.031 226.497 461.634 225.076 461.634C223.113 461.634 221.517 462.338 220.288 463.748C219.072 465.157 218.464 467.439 218.464 470.595C218.464 473.943 219.066 476.328 220.27 477.749C221.475 479.17 223.041 479.881 224.968 479.881C226.389 479.881 227.611 479.429 228.635 478.526C229.659 477.623 230.394 476.201 230.839 474.262ZM242.535 484V457.515H247.739L258.578 475.202V457.515H263.547V484H258.181L247.504 466.729V484H242.535ZM270.907 484V457.515H276.255V484H270.907ZM300.164 474.262L305.349 475.906C304.554 478.797 303.229 480.947 301.374 482.356C299.531 483.753 297.189 484.452 294.346 484.452C290.829 484.452 287.939 483.253 285.674 480.856C283.41 478.448 282.278 475.16 282.278 470.992C282.278 466.584 283.416 463.163 285.692 460.73C287.969 458.285 290.962 457.063 294.671 457.063C297.911 457.063 300.543 458.021 302.566 459.936C303.771 461.068 304.674 462.694 305.276 464.813L299.983 466.078C299.67 464.705 299.013 463.621 298.014 462.826C297.026 462.031 295.822 461.634 294.4 461.634C292.437 461.634 290.841 462.338 289.613 463.748C288.396 465.157 287.788 467.439 287.788 470.595C287.788 473.943 288.39 476.328 289.595 477.749C290.799 479.17 292.365 479.881 294.292 479.881C295.713 479.881 296.936 479.429 297.96 478.526C298.983 477.623 299.718 476.201 300.164 474.262ZM310.451 475.382L315.654 474.876C315.967 476.623 316.599 477.906 317.551 478.725C318.514 479.544 319.809 479.953 321.435 479.953C323.157 479.953 324.452 479.592 325.319 478.869C326.199 478.134 326.638 477.279 326.638 476.304C326.638 475.677 326.451 475.147 326.078 474.714C325.717 474.268 325.078 473.883 324.163 473.558C323.537 473.341 322.11 472.955 319.881 472.401C317.015 471.691 315.003 470.818 313.847 469.782C312.221 468.324 311.408 466.548 311.408 464.452C311.408 463.103 311.788 461.845 312.546 460.676C313.317 459.496 314.419 458.599 315.853 457.984C317.298 457.37 319.038 457.063 321.074 457.063C324.398 457.063 326.897 457.792 328.571 459.249C330.257 460.706 331.143 462.652 331.227 465.084L325.879 465.319C325.651 463.958 325.157 462.983 324.398 462.393C323.651 461.79 322.525 461.489 321.02 461.489C319.466 461.489 318.249 461.808 317.37 462.447C316.804 462.856 316.521 463.404 316.521 464.091C316.521 464.717 316.786 465.253 317.316 465.699C317.99 466.265 319.628 466.855 322.23 467.469C324.832 468.083 326.753 468.722 327.993 469.384C329.246 470.035 330.221 470.932 330.92 472.076C331.631 473.208 331.986 474.611 331.986 476.286C331.986 477.803 331.564 479.224 330.721 480.549C329.878 481.874 328.686 482.862 327.144 483.512C325.602 484.151 323.681 484.47 321.381 484.47C318.033 484.47 315.461 483.699 313.667 482.157C311.872 480.604 310.8 478.345 310.451 475.382Z" fill="white"/>
</g>
<defs>
<clipPath id="clip0_2222_41">
<rect width="390" height="844" fill="white"/>
</clipPath>
</defs>
</svg>
