<svg width="192" height="192" viewBox="0 0 192 192" fill="none" xmlns="http://www.w3.org/2000/svg">
<rect width="192" height="192" fill="black"/>
<path d="M61.1845 53.5667L61.8329 54.0256L96.8661 78.7883L131.9 54.0256L132.55 53.5667H150.5V137.433H128V82.8323L108.172 96.2209V137.433H85.6708V96.2239L65.7333 82.8206V137.433H43.2333V53.5667H61.1845Z" stroke="white" stroke-width="5"/>
<path d="M54.3096 124.701L44 132.333V128.811L54.3096 121.375L64.8 129.007V132.333L54.3096 124.701Z" fill="white"/>
<path d="M54.3096 118.29L44 125.425V122.132L54.3096 115.181L64.8 122.315V125.425L54.3096 118.29Z" fill="white"/>
<path d="M54.3096 111.288L44 118.754V115.308L54.3096 108.034L64.8 115.5V118.754L54.3096 111.288Z" fill="white"/>
<path d="M54.3096 104.69L44 112.322V108.799L54.3096 101.363L64.8 108.995V112.322L54.3096 104.69Z" fill="white"/>
<path d="M54.3096 98.2578L44 105.89V102.367L54.3096 94.9311L64.8 102.563V105.89L54.3096 98.2578Z" fill="white"/>
<path d="M54.3096 91.6809L44 98.9809V95.6117L54.3096 88.4988L64.8 95.7988V98.9809L54.3096 91.6809Z" fill="white"/>
<path d="M54.3096 85.321L44 92.787V89.3412L54.3096 82.0667L64.8 89.5326V92.787L54.3096 85.321Z" fill="white"/>
</svg>
