<svg width="512" height="512" viewBox="0 0 512 512" fill="none" xmlns="http://www.w3.org/2000/svg">
<rect width="512" height="512" fill="black"/>
<path d="M155.006 136.5L156.688 137.682L258.308 209.104L359.929 137.682L361.612 136.5H412.5V376.002H348.954V218.551L290.24 257.974V376.002H226.694V257.981L167.665 218.521V376.002H104.118V136.5H155.006Z" stroke="white" stroke-width="13"/>
<path d="M135.508 339.995L106 361.916V351.799L135.508 330.439L165.534 352.361V361.916L135.508 339.995Z" fill="white"/>
<path d="M135.508 321.58L106 342.072V332.614L135.508 312.647L165.534 333.139V342.072L135.508 321.58Z" fill="white"/>
<path d="M135.508 301.466L106 322.911V313.013L135.508 292.118L165.534 313.563V322.911L135.508 301.466Z" fill="white"/>
<path d="M135.508 282.513L106 304.435V294.317L135.508 272.958L165.534 294.879V304.435L135.508 282.513Z" fill="white"/>
<path d="M135.508 264.037L106 285.959V275.842L135.508 254.482L165.534 276.404V285.959L135.508 264.037Z" fill="white"/>
<path d="M135.508 245.146L106 266.115V256.437L135.508 236.005L165.534 256.974V266.115L135.508 245.146Z" fill="white"/>
<path d="M135.508 226.878L106 248.323V238.425L135.508 217.53L165.534 238.975V248.323L135.508 226.878Z" fill="white"/>
</svg>
